<svg width="492" height="75" viewBox="0 0 492 75" fill="none" xmlns="http://www.w3.org/2000/svg">
<path d="M24.1797 74.5L34.6925 58H57.8207L24.1797 74.5Z" fill="#6BA100"/>
<rect width="492" height="58" rx="29" fill="#6BA100"/>
<path d="M42.5 18.24H45.18V36.82H42.5V18.24ZM35.2 19.54C38 19.54 40.06 22.1 40.06 26.14C40.06 30.22 38 32.78 35.2 32.78C32.4 32.78 30.34 30.22 30.34 26.14C30.34 22.1 32.4 19.54 35.2 19.54ZM35.2 21.96C33.82 21.96 32.88 23.42 32.88 26.14C32.88 28.9 33.82 30.38 35.2 30.38C36.58 30.38 37.5 28.9 37.5 26.14C37.5 23.42 36.58 21.96 35.2 21.96ZM48.8984 25.46H50.3984C53.8984 25.46 56.0184 25.44 58.4984 25.02L58.6984 27.06C56.1584 27.46 53.9584 27.5 50.3984 27.5H48.8984V25.46ZM48.8784 19.1H57.2384V24.18H51.5384V26.42H48.8984V22.32H54.6184V21.1H48.8784V19.1ZM51.3184 28.62H63.6984V33.54H53.9784V35.52H51.3384V31.68H61.0584V30.6H51.3184V28.62ZM51.3384 34.64H64.2384V36.66H51.3384V34.64ZM61.0384 18.26H63.6984V27.9H61.0384V18.26ZM58.1384 21.6H61.5984V23.72H58.1384V21.6ZM81.1258 18.54H83.5458V35.94H81.1258V18.54ZM82.5658 25.42H85.8258V27.56H82.5658V25.42ZM71.5258 30.14H72.3658C73.2458 30.14 74.2058 30.12 75.4458 29.84L75.6258 32C74.3058 32.3 73.3258 32.32 72.3658 32.32H71.5258V30.14ZM71.5258 20.46H75.4258V22.58H73.9458V31.32H71.5258V20.46ZM76.1258 30.14H76.9858C78.0258 30.14 79.0658 30.12 80.3858 29.82L80.5658 31.98C79.1858 32.3 78.1058 32.32 76.9858 32.32H76.1258V30.14ZM76.1258 20.46H80.1658V22.58H78.5058V31.3H76.1258V20.46ZM84.8858 18.26H87.3858V36.78H84.8858V18.26ZM94.554 25V23.4659C94.554 23.0303 94.6392 22.5852 94.8097 22.1307C94.9801 21.6761 95.205 21.2476 95.4844 20.8452C95.7637 20.4427 96.0668 20.1065 96.3935 19.8366L97.7287 20.625C97.4635 21.0417 97.2457 21.4773 97.0753 21.9318C96.9096 22.3864 96.8267 22.893 96.8267 23.4517V25H94.554ZM101.157 18.9H112.897V20.98H101.157V18.9ZM111.297 18.9H113.917V20.54C113.917 22.16 113.917 23.9 113.437 26.08L110.817 25.84C111.297 23.7 111.297 22.14 111.297 20.54V18.9ZM112.097 22.02V23.84L100.937 24.28L100.637 22.26L112.097 22.02ZM99.1369 25.4H115.817V27.48H99.1369V25.4ZM100.937 28.56H114.017V33.46H103.597V35.46H100.957V31.58H111.377V30.56H100.937V28.56ZM100.957 34.56H114.637V36.58H100.957V34.56ZM117.995 30.28H119.315C121.555 30.28 123.535 30.22 125.835 29.82L126.055 31.96C123.675 32.4 121.635 32.46 119.315 32.46H117.995V30.28ZM117.975 20.08H124.515V27.16H120.575V31.12H117.995V25.08H121.955V22.18H117.975V20.08ZM130.875 18.26H133.395V36.78H130.875V18.26ZM125.275 24.56H128.155V26.74H125.275V24.56ZM127.115 18.6H129.575V35.9H127.115V18.6ZM148.614 18.28H151.294V28.74H148.614V18.28ZM138.974 29.58H151.294V36.58H138.974V29.58ZM148.674 31.66H141.574V34.48H148.674V31.66ZM141.214 19.12C144.094 19.12 146.234 20.96 146.234 23.56C146.234 26.14 144.094 28 141.214 28C138.334 28 136.174 26.14 136.174 23.56C136.174 20.96 138.334 19.12 141.214 19.12ZM141.214 21.32C139.814 21.32 138.774 22.14 138.774 23.56C138.774 24.96 139.814 25.78 141.214 25.78C142.614 25.78 143.634 24.96 143.634 23.56C143.634 22.14 142.614 21.32 141.214 21.32ZM158.941 32.48H175.701V34.64H158.941V32.48ZM165.961 28.38H168.621V32.98H165.961V28.38ZM160.681 19.62H173.861V28.72H160.681V19.62ZM171.261 21.74H163.301V26.62H171.261V21.74ZM178.08 19.74H186.84V28.7H178.08V19.74ZM184.22 21.84H180.7V26.6H184.22V21.84ZM190.16 18.28H192.82V31.76H190.16V18.28ZM186.12 23.14H190.84V25.26H186.12V23.14ZM180.6 34.34H193.24V36.46H180.6V34.34ZM180.6 30.48H183.26V35.44H180.6V30.48ZM197.698 27.8H210.718V29.88H197.698V27.8ZM195.738 32.5H212.498V34.66H195.738V32.5ZM197.698 19.6H210.558V21.74H200.398V28.38H197.698V19.6ZM199.578 23.68H210.138V25.74H199.578V23.68ZM217.059 20.4545V21.9886C217.059 22.4242 216.974 22.8693 216.804 23.3239C216.638 23.7737 216.415 24.1998 216.136 24.6023C215.857 25 215.551 25.3385 215.22 25.6179L213.885 24.8295C214.121 24.4555 214.33 24.0412 214.51 23.5866C214.694 23.1321 214.787 22.6042 214.787 22.0028V20.4545H217.059ZM235.136 18.24H237.816V36.76H235.136V18.24ZM237.116 25.32H240.376V27.5H237.116V25.32ZM230.276 20.16H232.876C232.876 25.72 230.756 30.48 224.596 33.58L223.116 31.56C227.976 29.04 230.276 25.64 230.276 20.62V20.16ZM224.136 20.16H231.636V22.3H224.136V20.16ZM254.603 22.04H259.643V24.18H254.603V22.04ZM254.603 27.78H259.643V29.92H254.603V27.78ZM251.403 19.54C254.163 19.54 256.183 22.1 256.183 26.14C256.183 30.22 254.163 32.78 251.403 32.78C248.623 32.78 246.623 30.22 246.623 26.14C246.623 22.1 248.623 19.54 251.403 19.54ZM251.403 21.96C250.063 21.96 249.143 23.42 249.143 26.14C249.143 28.9 250.063 30.38 251.403 30.38C252.763 30.38 253.663 28.9 253.663 26.14C253.663 23.42 252.763 21.96 251.403 21.96ZM259.223 18.24H261.863V36.82H259.223V18.24ZM277.562 18.24H280.222V36.82H277.562V18.24ZM274.662 24.92H278.102V27.06H274.662V24.92ZM265.362 30.34H266.882C269.882 30.34 272.262 30.28 274.942 29.82L275.182 31.98C272.442 32.44 269.962 32.54 266.882 32.54H265.362V30.34ZM265.322 19.82H273.662V26.78H268.002V31H265.362V24.68H271.042V21.94H265.322V19.82ZM283.12 27.74H299.88V29.84H283.12V27.74ZM290.38 28.86H293.06V32.76H290.38V28.86ZM285.06 34.34H298.04V36.46H285.06V34.34ZM285.06 31.36H287.7V35.24H285.06V31.36ZM285.26 18.84H287.88V20.74H295.1V18.84H297.74V26.46H285.26V18.84ZM287.88 22.74V24.38H295.1V22.74H287.88ZM301.539 25.44H318.299V27.54H301.539V25.44ZM303.599 22.36H316.319V24.44H303.599V22.36ZM303.599 18.6H316.159V20.72H306.239V24.16H303.599V18.6ZM303.439 28.58H316.239V33.48H306.079V35.08H303.459V31.6H313.619V30.58H303.439V28.58ZM303.459 34.6H316.719V36.64H303.459V34.6ZM328.297 18.52C332.517 18.52 334.997 19.64 334.997 21.68C334.997 23.72 332.517 24.84 328.297 24.84C324.057 24.84 321.597 23.72 321.597 21.68C321.597 19.64 324.057 18.52 328.297 18.52ZM328.297 20.46C325.617 20.46 324.357 20.86 324.357 21.68C324.357 22.54 325.617 22.9 328.297 22.9C330.977 22.9 332.237 22.54 332.237 21.68C332.237 20.86 330.977 20.46 328.297 20.46ZM319.917 25.7H336.657V27.8H319.917V25.7ZM321.837 28.84H334.637V33.6H324.477V35.24H321.857V31.76H332.017V30.82H321.837V28.84ZM321.857 34.66H335.117V36.66H321.857V34.66ZM344.905 26.52H357.925V28.64H344.905V26.52ZM342.965 32.52H359.725V34.7H342.965V32.52ZM349.985 27.48H352.645V33.22H349.985V27.48ZM344.905 19.52H357.785V21.66H347.565V27.44H344.905V19.52ZM365.503 27.64H368.163V32.02H365.503V27.64ZM366.803 19.34C369.663 19.34 371.843 21.24 371.843 23.9C371.843 26.56 369.663 28.46 366.803 28.46C363.923 28.46 361.763 26.56 361.763 23.9C361.763 21.24 363.923 19.34 366.803 19.34ZM366.803 21.6C365.403 21.6 364.363 22.44 364.363 23.9C364.363 25.34 365.403 26.2 366.803 26.2C368.203 26.2 369.243 25.34 369.243 23.9C369.243 22.44 368.203 21.6 366.803 21.6ZM373.303 18.26H375.963V36.78H373.303V18.26ZM375.143 25.5H378.403V27.72H375.143V25.5ZM361.463 33.1L361.143 30.96C364.343 30.94 368.663 30.96 372.343 30.46L372.543 32.4C368.703 33.12 364.583 33.12 361.463 33.1ZM381.701 26.8H394.721V28.92H381.701V26.8ZM379.761 32.38H396.521V34.56H379.761V32.38ZM381.701 19.78H394.581V21.94H384.341V27.68H381.701V19.78ZM410.86 18.26H413.54V28.6H410.86V18.26ZM399.1 26.14H400.72C404.32 26.14 406.66 26.08 409.34 25.62L409.64 27.76C406.88 28.2 404.42 28.28 400.72 28.28H399.1V26.14ZM399.08 19.1H407.6V24.62H401.72V27.54H399.1V22.62H404.98V21.2H399.08V19.1ZM401.22 29.36H403.84V30.92H410.9V29.36H413.54V36.58H401.22V29.36ZM403.84 32.96V34.46H410.9V32.96H403.84ZM429.358 18.26H432.018V36.78H429.358V18.26ZM417.518 20.02H420.158V31.52H417.518V20.02ZM417.518 29.96H419.158C421.858 29.96 424.858 29.76 427.918 29.16L428.218 31.36C425.038 32.02 421.978 32.22 419.158 32.22H417.518V29.96ZM446.777 18.24H449.457V36.82H446.777V18.24ZM448.857 25.1H452.137V27.28H448.857V25.1ZM435.657 30.16H437.217C440.337 30.16 442.797 30.06 445.517 29.58L445.777 31.78C442.977 32.28 440.437 32.36 437.217 32.36H435.657V30.16ZM435.657 19.96H444.297V22.1H438.297V31.22H435.657V19.96ZM457.358 20.4545L457.081 30.6392H454.481L454.197 20.4545H457.358ZM455.781 35.1847C455.312 35.1847 454.91 35.0189 454.574 34.6875C454.237 34.3513 454.072 33.9489 454.076 33.4801C454.072 33.0161 454.237 32.6184 454.574 32.2869C454.91 31.9555 455.312 31.7898 455.781 31.7898C456.231 31.7898 456.626 31.9555 456.967 32.2869C457.308 32.6184 457.481 33.0161 457.485 33.4801C457.481 33.7926 457.398 34.0791 457.237 34.3395C457.081 34.5952 456.875 34.8011 456.619 34.9574C456.363 35.1089 456.084 35.1847 455.781 35.1847Z" fill="white"/>
</svg>
