<svg width="90" height="71" viewBox="0 0 90 71" fill="none" xmlns="http://www.w3.org/2000/svg">
<path d="M65.0142 36.3843C77.7621 39.669 86.4306 44.7224 86.4306 56.3452C86.4306 64.4306 80.3116 71 70.3683 71C59.1501 71 52.2663 62.4093 52.2663 48.2598C52.2663 32.847 60.17 10.6121 85.9207 0L90 6.31672C72.6629 14.6548 66.034 27.2882 65.0142 36.3843ZM12.4929 36.3843C25.2408 39.669 33.9094 44.7224 33.9094 56.3452C33.9094 64.4306 27.7904 71 17.847 71C6.62888 71 0 62.4093 0 48.2598C0 32.847 7.90369 10.6121 33.3994 0L37.4788 6.31672C20.1416 14.6548 13.7677 27.2882 12.4929 36.3843Z" fill="#F0F0F0"/>
</svg>
