<svg width="595" height="75" viewBox="0 0 595 75" fill="none" xmlns="http://www.w3.org/2000/svg">
<rect width="595" height="58" rx="29" fill="#6BA100"/>
<path d="M23 74.5L33 58H55L23 74.5Z" fill="#6BA100"/>
<path d="M40.36 20H49.22V32.28H40.36V20ZM46.6 22.08H42.98V30.18H46.6V22.08ZM51.64 18.26H54.32V36.78H51.64V18.26ZM53.72 25.24H57V27.44H53.72V25.24ZM63.8584 20.34H66.3584C66.3584 25.62 65.0784 29.94 59.5984 33.14L58.1184 31.3C62.6584 28.66 63.8584 25.4 63.8584 20.8V20.34ZM59.1584 20.34H64.6784V22.46H59.1584V20.34ZM63.8984 24.56V26.54L58.5384 27.1L58.2184 24.86L63.8984 24.56ZM64.8384 25.26H68.6384V27.36H64.8384V25.26ZM71.6184 18.26H74.1584V36.78H71.6184V18.26ZM67.7384 18.66H70.2184V35.96H67.7384V18.66ZM77.6169 26.56H79.1969C83.0169 26.56 85.2369 26.52 87.7769 26.12L88.0369 28.18C85.4369 28.62 83.0969 28.66 79.1969 28.66H77.6169V26.56ZM77.6169 19.54H86.5169V21.64H80.2569V27.42H77.6169V19.54ZM79.4369 23.06H85.9769V25.1H79.4369V23.06ZM89.3169 18.28H91.9969V29.46H89.3169V18.28ZM85.7369 29.74C89.6369 29.74 92.0769 31.04 92.0769 33.26C92.0769 35.5 89.6369 36.78 85.7369 36.78C81.8169 36.78 79.3969 35.5 79.3969 33.26C79.3969 31.04 81.8169 29.74 85.7369 29.74ZM85.7369 31.78C83.3169 31.78 82.0569 32.26 82.0569 33.26C82.0569 34.28 83.3169 34.76 85.7369 34.76C88.1369 34.76 89.4169 34.28 89.4169 33.26C89.4169 32.26 88.1369 31.78 85.7369 31.78ZM94.9953 27.7H111.735V29.82H94.9953V27.7ZM97.0153 34.34H109.855V36.46H97.0153V34.34ZM97.0153 31.06H99.6753V35.02H97.0153V31.06ZM103.375 18.8C107.395 18.8 110.075 20.26 110.075 22.62C110.075 24.98 107.395 26.44 103.375 26.44C99.3353 26.44 96.6753 24.98 96.6753 22.62C96.6753 20.26 99.3353 18.8 103.375 18.8ZM103.375 20.92C100.875 20.92 99.4153 21.5 99.4153 22.62C99.4153 23.76 100.875 24.32 103.375 24.32C105.875 24.32 107.335 23.76 107.335 22.62C107.335 21.5 105.875 20.92 103.375 20.92ZM123.103 19.54C125.863 19.54 127.883 22.1 127.883 26.14C127.883 30.22 125.863 32.78 123.103 32.78C120.323 32.78 118.323 30.22 118.323 26.14C118.323 22.1 120.323 19.54 123.103 19.54ZM123.103 21.96C121.763 21.96 120.863 23.42 120.863 26.14C120.863 28.9 121.763 30.38 123.103 30.38C124.463 30.38 125.343 28.9 125.343 26.14C125.343 23.42 124.463 21.96 123.103 21.96ZM130.923 18.24H133.563V36.82H130.923V18.24ZM127.103 24.92H132.043V27.06H127.103V24.92ZM138.741 29.04H152.341V31.04H138.741V29.04ZM145.521 31.6C148.921 31.6 150.941 32.54 150.941 34.22C150.941 35.88 148.921 36.8 145.521 36.8C142.141 36.8 140.101 35.88 140.101 34.22C140.101 32.54 142.141 31.6 145.521 31.6ZM145.521 33.42C143.861 33.42 142.941 33.64 142.941 34.22C142.941 34.78 143.861 35.02 145.521 35.02C147.181 35.02 148.081 34.78 148.081 34.22C148.081 33.64 147.181 33.42 145.521 33.42ZM144.221 27.6H146.881V30.34H144.221V27.6ZM136.681 24.92H137.621C139.141 24.92 140.281 24.88 141.701 24.6L141.901 26.66C140.381 26.96 139.221 26.98 137.621 26.98H136.681V24.92ZM136.681 19H141.521V21.04H139.301V26.4H136.681V19ZM142.381 24.92H143.381C145.721 24.92 146.741 24.88 147.981 24.58L148.161 26.64C146.901 26.94 145.821 26.98 143.381 26.98H142.381V24.92ZM142.381 19H147.541V21.04H145.001V26.4H142.381V19ZM149.461 18.26H152.101V28.12H149.461V18.26ZM147.061 21.84H150.961V23.82H147.061V21.84ZM168.24 18.26H170.78V36.78H168.24V18.26ZM160.9 25.36H164.86V27.46H160.9V25.36ZM164.34 18.66H166.82V35.96H164.34V18.66ZM160.3 20.44H162.86C162.86 25.72 161.28 29.92 156.08 32.94L154.58 31.08C158.8 28.54 160.3 25.46 160.3 20.98V20.44ZM155.62 20.44H161.14V22.56H155.62V20.44ZM177.827 21.04H186.687V23.16H177.827V21.04ZM182.287 23.98C184.647 23.98 186.347 25.8 186.347 28.4C186.347 30.98 184.647 32.8 182.287 32.8C179.947 32.8 178.227 30.98 178.227 28.4C178.227 25.8 179.947 23.98 182.287 23.98ZM182.287 26.2C181.287 26.2 180.587 27 180.587 28.4C180.587 29.8 181.287 30.58 182.287 30.58C183.287 30.58 184.007 29.8 184.007 28.4C184.007 27 183.287 26.2 182.287 26.2ZM191.227 18.26H193.767V36.78H191.227V18.26ZM189.007 25.78H192.067V27.92H189.007V25.78ZM187.347 18.6H189.827V36H187.347V18.6ZM180.987 18.76H183.607V22.38H180.987V18.76ZM201.205 19.54C204.025 19.54 206.065 22.1 206.065 26.14C206.065 30.22 204.025 32.78 201.205 32.78C198.385 32.78 196.345 30.22 196.345 26.14C196.345 22.1 198.385 19.54 201.205 19.54ZM201.205 21.96C199.825 21.96 198.905 23.42 198.905 26.14C198.905 28.9 199.825 30.38 201.205 30.38C202.585 30.38 203.525 28.9 203.525 26.14C203.525 23.42 202.585 21.96 201.205 21.96ZM210.045 22.56H213.305V24.76H210.045V22.56ZM210.045 28H213.305V30.18H210.045V28ZM208.085 18.26H210.765V36.78H208.085V18.26ZM226.524 18.26H229.164V36.78H226.524V18.26ZM228.564 25.48H231.844V27.7H228.564V25.48ZM214.564 21H225.344V23.12H214.564V21ZM219.984 24.16C222.684 24.16 224.684 26 224.684 28.58C224.684 31.16 222.684 33 219.984 33C217.284 33 215.284 31.16 215.284 28.58C215.284 26 217.284 24.16 219.984 24.16ZM219.984 26.32C218.724 26.32 217.824 27.16 217.824 28.58C217.824 30 218.724 30.84 219.984 30.84C221.244 30.84 222.144 30 222.144 28.58C222.144 27.16 221.244 26.32 219.984 26.32ZM218.644 18.56H221.304V21.8H218.644V18.56ZM237.502 21.18H239.622V23.26C239.622 27.54 237.882 31.72 234.402 33.3L232.902 31.2C236.002 29.82 237.502 26.4 237.502 23.26V21.18ZM238.102 21.18H240.202V23.26C240.202 26.26 241.682 29.46 244.782 30.74L243.342 32.84C239.822 31.32 238.102 27.38 238.102 23.26V21.18ZM233.642 20.04H244.022V22.22H233.642V20.04ZM245.742 18.26H248.422V36.78H245.742V18.26ZM254.447 30.6392V30.3977C254.452 29.5691 254.526 28.9086 254.668 28.4162C254.814 27.9238 255.027 27.526 255.307 27.223C255.586 26.92 255.922 26.6454 256.315 26.3991C256.609 26.2098 256.872 26.0133 257.104 25.8097C257.336 25.6061 257.52 25.3812 257.658 25.1349C257.795 24.884 257.864 24.6046 257.864 24.2969C257.864 23.9702 257.786 23.6837 257.629 23.4375C257.473 23.1913 257.262 23.0019 256.997 22.8693C256.737 22.7367 256.448 22.6705 256.131 22.6705C255.823 22.6705 255.532 22.7391 255.257 22.8764C254.982 23.009 254.758 23.2079 254.582 23.473C254.407 23.7334 254.313 24.0578 254.298 24.446H251.401C251.424 23.4991 251.652 22.7178 252.082 22.1023C252.513 21.482 253.084 21.0204 253.794 20.7173C254.504 20.4096 255.288 20.2557 256.145 20.2557C257.087 20.2557 257.92 20.4119 258.645 20.7244C259.369 21.0322 259.938 21.4796 260.349 22.0668C260.761 22.6539 260.967 23.3617 260.967 24.1903C260.967 24.7443 260.875 25.2367 260.69 25.6676C260.51 26.0937 260.257 26.4725 259.93 26.804C259.604 27.1307 259.218 27.4266 258.773 27.6918C258.399 27.9143 258.091 28.1463 257.849 28.3878C257.613 28.6293 257.435 28.9086 257.317 29.2259C257.203 29.5431 257.144 29.9337 257.139 30.3977V30.6392H254.447ZM255.854 35.1847C255.38 35.1847 254.975 35.0189 254.639 34.6875C254.308 34.3513 254.144 33.9489 254.149 33.4801C254.144 33.0161 254.308 32.6184 254.639 32.2869C254.975 31.9555 255.38 31.7898 255.854 31.7898C256.304 31.7898 256.699 31.9555 257.04 32.2869C257.381 32.6184 257.554 33.0161 257.558 33.4801C257.554 33.7926 257.471 34.0791 257.31 34.3395C257.153 34.5952 256.947 34.8011 256.692 34.9574C256.436 35.1089 256.157 35.1847 255.854 35.1847ZM272.4 19.54C275.16 19.54 277.18 22.1 277.18 26.14C277.18 30.22 275.16 32.78 272.4 32.78C269.62 32.78 267.62 30.22 267.62 26.14C267.62 22.1 269.62 19.54 272.4 19.54ZM272.4 21.96C271.06 21.96 270.16 23.42 270.16 26.14C270.16 28.9 271.06 30.38 272.4 30.38C273.76 30.38 274.64 28.9 274.64 26.14C274.64 23.42 273.76 21.96 272.4 21.96ZM280.22 18.24H282.86V36.82H280.22V18.24ZM276.4 24.92H281.34V27.06H276.4V24.92ZM288.038 29.04H301.638V31.04H288.038V29.04ZM294.818 31.6C298.218 31.6 300.238 32.54 300.238 34.22C300.238 35.88 298.218 36.8 294.818 36.8C291.438 36.8 289.398 35.88 289.398 34.22C289.398 32.54 291.438 31.6 294.818 31.6ZM294.818 33.42C293.158 33.42 292.238 33.64 292.238 34.22C292.238 34.78 293.158 35.02 294.818 35.02C296.478 35.02 297.378 34.78 297.378 34.22C297.378 33.64 296.478 33.42 294.818 33.42ZM293.518 27.6H296.178V30.34H293.518V27.6ZM285.978 24.92H286.918C288.438 24.92 289.578 24.88 290.998 24.6L291.198 26.66C289.678 26.96 288.518 26.98 286.918 26.98H285.978V24.92ZM285.978 19H290.818V21.04H288.598V26.4H285.978V19ZM291.678 24.92H292.678C295.018 24.92 296.038 24.88 297.278 24.58L297.458 26.64C296.198 26.94 295.118 26.98 292.678 26.98H291.678V24.92ZM291.678 19H296.838V21.04H294.298V26.4H291.678V19ZM298.758 18.26H301.398V28.12H298.758V18.26ZM296.358 21.84H300.258V23.82H296.358V21.84ZM317.536 18.26H320.076V36.78H317.536V18.26ZM310.196 25.36H314.156V27.46H310.196V25.36ZM313.636 18.66H316.116V35.96H313.636V18.66ZM309.596 20.44H312.156C312.156 25.72 310.576 29.92 305.376 32.94L303.876 31.08C308.096 28.54 309.596 25.46 309.596 20.98V20.44ZM304.916 20.44H310.436V22.56H304.916V20.44ZM339.024 18.26H341.664V36.78H339.024V18.26ZM341.064 25.48H344.344V27.7H341.064V25.48ZM327.064 21H337.844V23.12H327.064V21ZM332.484 24.16C335.184 24.16 337.184 26 337.184 28.58C337.184 31.16 335.184 33 332.484 33C329.784 33 327.784 31.16 327.784 28.58C327.784 26 329.784 24.16 332.484 24.16ZM332.484 26.32C331.224 26.32 330.324 27.16 330.324 28.58C330.324 30 331.224 30.84 332.484 30.84C333.744 30.84 334.644 30 334.644 28.58C334.644 27.16 333.744 26.32 332.484 26.32ZM331.144 18.56H333.804V21.8H331.144V18.56ZM354.482 21.16H359.142V23.28H354.482V21.16ZM354.482 25.14H359.222V27.26H354.482V25.14ZM346.302 19.74H355.062V28.8H346.302V19.74ZM352.442 21.84H348.922V26.72H352.442V21.84ZM358.382 18.28H361.042V31.76H358.382V18.28ZM348.782 34.34H361.442V36.46H348.782V34.34ZM348.782 30.48H351.462V35.44H348.782V30.48ZM382.39 25.26H385.65V27.44H382.39V25.26ZM380.41 18.24H383.09V36.76H380.41V18.24ZM369.13 20.02H371.79V31.52H369.13V20.02ZM369.13 30.04H370.73C373.37 30.04 376.23 29.86 379.21 29.26L379.49 31.44C376.43 32.08 373.45 32.24 370.73 32.24H369.13V30.04ZM386.968 26.56H403.748V28.5H386.968V26.56ZM388.848 29.42H401.748V33.82H391.528V35.4H388.888V32.14H399.128V31.22H388.848V29.42ZM388.888 34.84H402.268V36.64H388.888V34.84ZM389.028 18.58H401.708V22.94H391.688V24.46H389.048V21.28H399.088V20.36H389.028V18.58ZM389.048 23.9H402.048V25.7H389.048V23.9ZM421.915 18.26H424.575V27.5H421.915V18.26ZM423.495 21.8H427.015V23.98H423.495V21.8ZM412.335 28.24H424.575V33.32H415.015V35.52H412.375V31.4H421.955V30.28H412.335V28.24ZM412.375 34.5H425.115V36.58H412.375V34.5ZM415.055 18.8C417.895 18.8 419.995 20.54 419.995 23C419.995 25.44 417.895 27.2 415.055 27.2C412.235 27.2 410.115 25.44 410.115 23C410.115 20.54 412.235 18.8 415.055 18.8ZM415.055 20.94C413.695 20.94 412.695 21.7 412.695 23C412.695 24.3 413.695 25.08 415.055 25.08C416.435 25.08 417.435 24.3 417.435 23C417.435 21.7 416.435 20.94 415.055 20.94ZM429.314 25.48H430.914C434.974 25.48 437.094 25.44 439.594 25.04L439.834 27.04C437.294 27.46 435.054 27.52 430.914 27.52H429.314V25.48ZM429.274 19.12H437.934V24.18H431.934V26.44H429.314V22.32H435.314V21.12H429.274V19.12ZM431.434 28.58H443.794V33.5H434.154V35.48H431.474V31.62H441.074V30.58H431.434V28.58ZM431.474 34.64H444.254V36.66H431.474V34.64ZM441.114 18.26H443.794V27.9H441.114V18.26ZM458.401 18.8H460.741V19.66C460.741 23.22 457.941 26.24 453.081 26.96L452.041 24.82C456.301 24.26 458.401 21.84 458.401 19.66V18.8ZM458.901 18.8H461.221V19.66C461.221 21.82 463.341 24.26 467.581 24.82L466.561 26.96C461.701 26.24 458.901 23.22 458.901 19.66V18.8ZM458.421 30H461.061V36.78H458.421V30ZM451.441 28.32H468.181V30.48H451.441V28.32ZM478.608 29.5H480.608V30.12C480.608 32.92 479.368 35.48 476.468 36.52L475.168 34.58C477.588 33.76 478.608 31.92 478.608 30.12V29.5ZM479.288 29.5H481.188V30.12C481.188 31.92 482.088 33.8 484.348 34.74L483.288 36.7C480.348 35.6 479.288 32.84 479.288 30.12V29.5ZM485.368 29.5H487.268V30.12C487.268 32.68 486.168 35.56 483.288 36.7L482.188 34.74C484.448 33.72 485.368 31.76 485.368 30.12V29.5ZM485.988 29.5H487.988V30.12C487.988 32.04 488.988 33.82 491.428 34.58L490.128 36.52C487.188 35.52 485.988 33.04 485.988 30.12V29.5ZM487.168 18.28H489.848V28.74H487.168V18.28ZM479.768 19.22C482.648 19.22 484.788 21.06 484.788 23.66C484.788 26.24 482.648 28.08 479.768 28.08C476.888 28.08 474.728 26.24 474.728 23.66C474.728 21.06 476.888 19.22 479.768 19.22ZM479.768 21.42C478.368 21.42 477.328 22.24 477.328 23.66C477.328 25.06 478.368 25.88 479.768 25.88C481.168 25.88 482.188 25.06 482.188 23.66C482.188 22.24 481.168 21.42 479.768 21.42ZM494.927 23.26H507.767V25.36H494.927V23.26ZM492.847 27.28H509.627V29.4H492.847V27.28ZM494.927 18.92H497.567V24.3H494.927V18.92ZM494.747 34.26H507.867V36.38H494.747V34.26ZM494.747 30.88H497.407V34.82H494.747V30.88ZM524.085 18.26H526.745V36.78H524.085V18.26ZM520.505 25.36H525.365V27.52H520.505V25.36ZM518.005 20.18H520.625C520.625 25.8 518.845 30.38 512.425 33.6L511.025 31.52C516.265 28.92 518.005 25.56 518.005 20.66V20.18ZM511.905 20.18H519.405V22.28H511.905V20.18ZM534.104 21.18H536.224V23.26C536.224 27.54 534.484 31.72 531.004 33.3L529.504 31.2C532.604 29.82 534.104 26.4 534.104 23.26V21.18ZM534.704 21.18H536.804V23.26C536.804 26.26 538.284 29.46 541.384 30.74L539.944 32.84C536.424 31.32 534.704 27.38 534.704 23.26V21.18ZM530.244 20.04H540.624V22.22H530.244V20.04ZM542.344 18.26H545.024V36.78H542.344V18.26ZM551.049 30.6392V30.3977C551.054 29.5691 551.127 28.9086 551.269 28.4162C551.416 27.9238 551.629 27.526 551.908 27.223C552.188 26.92 552.524 26.6454 552.917 26.3991C553.21 26.2098 553.473 26.0133 553.705 25.8097C553.937 25.6061 554.122 25.3812 554.259 25.1349C554.397 24.884 554.465 24.6046 554.465 24.2969C554.465 23.9702 554.387 23.6837 554.231 23.4375C554.075 23.1913 553.864 23.0019 553.599 22.8693C553.338 22.7367 553.049 22.6705 552.732 22.6705C552.424 22.6705 552.133 22.7391 551.859 22.8764C551.584 23.009 551.359 23.2079 551.184 23.473C551.009 23.7334 550.914 24.0578 550.9 24.446H548.002C548.026 23.4991 548.253 22.7178 548.684 22.1023C549.115 21.482 549.685 21.0204 550.396 20.7173C551.106 20.4096 551.889 20.2557 552.746 20.2557C553.689 20.2557 554.522 20.4119 555.246 20.7244C555.971 21.0322 556.539 21.4796 556.951 22.0668C557.363 22.6539 557.569 23.3617 557.569 24.1903C557.569 24.7443 557.477 25.2367 557.292 25.6676C557.112 26.0937 556.859 26.4725 556.532 26.804C556.205 27.1307 555.819 27.4266 555.374 27.6918C555 27.9143 554.692 28.1463 554.451 28.3878C554.214 28.6293 554.037 28.9086 553.918 29.2259C553.805 29.5431 553.746 29.9337 553.741 30.3977V30.6392H551.049ZM552.455 35.1847C551.982 35.1847 551.577 35.0189 551.241 34.6875C550.909 34.3513 550.746 33.9489 550.751 33.4801C550.746 33.0161 550.909 32.6184 551.241 32.2869C551.577 31.9555 551.982 31.7898 552.455 31.7898C552.905 31.7898 553.3 31.9555 553.641 32.2869C553.982 32.6184 554.155 33.0161 554.16 33.4801C554.155 33.7926 554.072 34.0791 553.911 34.3395C553.755 34.5952 553.549 34.8011 553.293 34.9574C553.038 35.1089 552.758 35.1847 552.455 35.1847Z" fill="white"/>
</svg>
