<svg width="16" height="15" viewBox="0 0 16 15" fill="none" xmlns="http://www.w3.org/2000/svg">
<path d="M7.90337 3.34788C7.79735 3.47759 7.7026 3.57572 7.62027 3.64001C7.53793 3.70543 7.4962 3.74378 7.4962 3.75506C7.53229 3.90845 7.61463 4.04493 7.74434 4.16223C7.87405 4.28066 8.01842 4.37541 8.17858 4.44534C8.33762 4.5164 8.4944 4.55813 8.6478 4.56941C8.8012 4.58069 8.92527 4.56377 9.02001 4.5164C9.26815 4.38669 9.44523 4.20961 9.55125 3.98515C9.65728 3.7607 9.70465 3.51932 9.69337 3.25878C9.66969 2.69143 9.48358 2.18951 9.13505 1.75301C8.78653 1.31651 8.37033 0.96234 7.88646 0.690513L7.51424 0.495386C7.4319 0.448014 7.34619 0.40628 7.25708 0.371315C7.16798 0.33635 7.07662 0.307023 6.983 0.282209C6.92322 0.258522 6.85892 0.234836 6.78786 0.21115C5.9611 -0.0245845 5.15803 -0.0629323 4.37864 0.0961036C3.59925 0.255139 2.84355 0.625096 2.11041 1.20372C1.61413 1.58157 1.2092 2.04514 0.896772 2.59443C0.583212 3.14373 0.353117 3.73137 0.20536 4.35736C0.0576035 4.98336 -0.0100711 5.62401 0.00120807 6.27933C0.0124872 6.93465 0.101594 7.56402 0.267398 8.16633C0.697133 9.72962 1.92205 11.0955 3.45601 11.6392C4.22412 11.911 4.98884 12.0441 5.75019 12.0373C6.44836 12.0317 7.15782 11.8512 7.74321 11.461C8.0861 11.2602 8.38387 11.0154 8.63765 10.7256C8.89143 10.4368 9.13054 10.0612 9.355 9.60103C9.355 9.58976 9.33695 9.56833 9.30199 9.539C9.04934 9.32695 8.8136 9.67435 8.69291 9.86384C8.49891 10.1706 8.26769 10.4278 8.0015 10.6737C7.72855 10.9263 7.4319 11.179 7.06984 11.2929C6.9751 11.3222 6.86344 11.3606 6.73373 11.408C6.49687 11.4677 6.24647 11.4993 5.98141 11.505C5.71522 11.5106 5.45918 11.4903 5.21104 11.4429C3.9568 11.2038 3.08718 10.1244 2.70369 8.96263C2.55594 8.51372 2.45893 8.02985 2.41156 7.50988C2.36419 6.98992 2.34614 6.46431 2.35855 5.93306C2.36983 5.3894 2.40818 4.84688 2.4736 4.30322C2.53789 3.75957 2.65068 3.25539 2.80971 2.78843C2.96875 2.32148 3.19095 1.91092 3.47406 1.55675C3.75716 1.20259 4.12373 0.9364 4.57264 0.759318C4.77341 0.67698 4.98321 0.61156 5.20202 0.564187C5.42084 0.516815 5.6295 0.493128 5.8314 0.493128C6.03216 0.505535 6.19684 0.522454 6.32768 0.54614C6.45739 0.569826 6.61078 0.61156 6.78786 0.670211C7.13075 0.799922 7.42853 0.96911 7.68231 1.17552C7.93609 1.38193 8.10978 1.62668 8.20452 1.91092C8.22821 1.96957 8.24626 2.02596 8.25754 2.07898C8.26882 2.13199 8.27558 2.1647 8.27558 2.17598C8.28686 2.4354 8.25528 2.66324 8.17858 2.85836C8.10076 3.05575 8.0094 3.21817 7.90337 3.34788Z" fill="#39A5DE"/>
<path d="M2.89779 13.2273C2.8955 13.2353 2.89322 13.2444 2.89093 13.2524L2.89779 13.2273Z" fill="#39A5DE"/>
<path d="M2.96081 12.9971L2.89764 13.2272C2.93374 13.0941 2.96081 12.9971 2.96081 12.9971Z" fill="#39A5DE"/>
<path d="M4.05379 14.6372C4.05379 14.6361 4.05266 14.6349 4.05266 14.6338C4.04026 14.6011 4.01093 14.5785 3.97822 14.5661C3.94551 14.5537 3.91055 14.5526 3.87558 14.5515C3.76053 14.5503 3.64549 14.5424 3.53044 14.5312C3.49886 14.53 3.46953 14.5267 3.44472 14.5221C3.33193 14.5086 3.21011 14.4883 3.09845 14.459C2.90332 14.4071 2.73752 14.3281 2.69014 14.2052C2.67661 14.1477 2.67999 14.0676 2.70029 13.9672C2.70932 13.9255 2.7206 13.8758 2.73752 13.8138L2.75331 13.754C2.76571 13.7089 2.77925 13.6604 2.79278 13.6085L2.82888 13.4754C2.83564 13.4495 2.84241 13.4247 2.84918 13.3987L2.88866 13.2521C2.89091 13.2431 2.89317 13.2352 2.89542 13.2273L2.95859 12.9972L3.2135 12.0667C3.0116 11.9764 2.82098 11.8682 2.64164 11.7554C2.37658 12.6859 2.2559 13.1844 2.01904 13.9311C2.01565 13.9447 2.01001 13.9593 2.0055 13.9729C1.96941 14.0721 1.84534 14.3225 1.48553 14.4533C1.39755 14.4861 1.29604 14.5109 1.17648 14.5244C1.17648 14.5244 0.91255 14.547 0.853899 14.5526C0.851643 14.5526 0.849388 14.5526 0.84826 14.5537C0.790737 14.5594 0.725316 14.5706 0.709526 14.6372C0.702758 14.6665 0.709527 14.6981 0.728702 14.7207C0.768179 14.7692 0.844877 14.7782 0.904656 14.7816C0.921575 14.7827 0.964434 14.7827 1.02647 14.7838C1.14039 14.7849 1.32311 14.7849 1.5408 14.7861C1.99422 14.7861 2.60217 14.7849 3.09055 14.7838C3.40863 14.7827 3.67368 14.7827 3.81129 14.7816C3.86994 14.7804 3.91731 14.7782 3.95002 14.7725C4.0098 14.7624 4.07409 14.7004 4.05379 14.6372Z" fill="#39A5DE"/>
<path d="M15.9939 14.6227C15.9826 14.537 15.8924 14.5133 15.8191 14.511C15.7097 14.5077 15.6025 14.5336 15.4931 14.5246C15.3961 14.5167 15.2991 14.4986 15.2044 14.4761C15.1999 14.475 15.1954 14.4738 15.1908 14.4727C15.1852 14.4716 15.1807 14.4704 15.1751 14.4693C15.0521 14.4389 14.919 14.3926 14.7983 14.3261C14.6833 14.2629 14.5818 14.1806 14.5096 14.0745C14.5017 14.0644 14.4949 14.052 14.487 14.0418C14.399 13.8918 14.3291 13.7294 14.2738 13.5816C13.7685 11.8898 13.2711 10.1641 12.7827 8.40452C12.2808 6.5976 11.7642 4.83242 11.233 3.10784C11.198 3.0255 11.1653 2.97249 11.136 2.9488C11.1067 2.92512 11.0796 2.92173 11.0559 2.93978C11.0322 2.95782 11.0085 2.98377 10.9848 3.01986C10.9612 3.05483 10.9431 3.09092 10.9318 3.12588C10.4953 3.91768 10.0633 4.75008 9.63812 5.62421C9.2129 6.49835 8.77527 7.32511 8.32748 8.1045C8.11431 7.73905 7.86955 7.31383 7.59208 6.82883C7.31462 6.34495 7.03715 5.86108 6.75968 5.37607C6.48222 4.8922 6.22167 4.44329 5.9803 4.02934C5.73779 3.61653 5.55169 3.29169 5.42198 3.05483C5.3622 2.9488 5.30693 2.90707 5.25392 2.93076C5.20091 2.95444 5.1682 2.99617 5.15692 3.05483C4.94487 3.72819 4.70801 4.52562 4.44859 5.446C4.18917 6.36751 3.91959 7.32736 3.64213 8.32444C3.50001 8.83651 3.51242 8.80719 3.3703 9.31362C3.46956 9.50762 3.44023 9.43656 3.58461 9.73095C3.61619 9.79524 3.59363 9.74787 3.81357 10.1077L4.97984 6.08327C5.40506 6.83898 5.78855 7.51798 6.13144 8.12029C6.27355 8.38083 6.41454 8.63461 6.55666 8.88163C6.69877 9.12977 6.82849 9.35422 6.94692 9.55499C7.06535 9.75576 7.16235 9.92157 7.23904 10.0513C7.31574 10.181 7.35974 10.252 7.37214 10.2645C7.40711 10.3355 7.47253 10.3919 7.56727 10.4325C7.66202 10.4742 7.75563 10.4122 7.85038 10.2464C8.02746 9.91593 8.21018 9.55838 8.39967 9.17489C8.58803 8.79139 8.78091 8.40678 8.97603 8.02329C9.17116 7.6398 9.36629 7.25856 9.56029 6.88071C9.75542 6.50286 9.94153 6.14305 10.1186 5.80017L10.2077 6.08327C10.3137 6.47353 10.4468 6.93711 10.6059 7.47399C10.7649 8.01201 10.9341 8.5692 11.1112 9.14782C11.2883 9.72644 11.4597 10.3028 11.6255 10.8747C11.7902 11.4476 11.9413 11.9642 12.0767 12.4244C12.1849 12.7932 12.2752 13.1091 12.3462 13.3719L12.4556 13.8016C12.4568 13.8072 12.4579 13.8129 12.459 13.8185C12.4703 13.8704 12.4985 14.0509 12.4071 14.1975C12.3609 14.2708 12.282 14.3317 12.2064 14.3734C12.2041 14.3746 12.2007 14.3768 12.1985 14.378C12.1297 14.414 12.0383 14.4513 11.9188 14.4772C11.8432 14.493 11.7586 14.5043 11.6605 14.5077C11.6605 14.5077 11.5206 14.4986 11.4394 14.5077C11.3717 14.5144 11.286 14.5584 11.2894 14.6396C11.2894 14.6408 11.2905 14.6419 11.2905 14.643C11.3029 14.793 11.4981 14.7998 11.6086 14.7998C11.7744 14.7998 11.9391 14.7998 12.1049 14.7998C12.1962 14.7998 12.291 14.7975 12.3902 14.7942C13.0659 14.7942 13.9783 14.793 14.6776 14.793C15.2754 14.7919 15.7165 14.7919 15.7165 14.7919C15.7165 14.7919 16.0131 14.8066 15.9996 14.6306C15.995 14.6272 15.9939 14.625 15.9939 14.6227Z" fill="#39A5DE"/>
</svg>
