<svg width="244" height="41" viewBox="0 0 244 41" fill="none" xmlns="http://www.w3.org/2000/svg">
<g clip-path="url(#clip0_1936_2426)">
<path d="M30.3843 0H28.9309L18.5377 18.2176C18.2493 18.7676 17.8544 19.2532 17.3764 19.6454C16.8984 20.0375 16.3472 20.3282 15.7557 20.5C15.1643 20.6718 14.5446 20.7212 13.9339 20.6453C13.3231 20.5693 12.7338 20.3697 12.201 20.0581C11.6682 19.7466 11.2029 19.3296 10.8329 18.832C10.4629 18.3344 10.1959 17.7665 10.0476 17.1622C9.89933 16.5579 9.87294 15.9295 9.97001 15.3146C10.0671 14.6997 10.2856 14.1109 10.6126 13.5834L18.3595 0H10.1327C8.80089 -1.23386e-06 7.48216 0.265659 6.25191 0.781812C5.02167 1.29796 3.90404 2.05448 2.96296 3.00807C2.02187 3.96167 1.27579 5.09363 0.76738 6.33924C0.258973 7.58485 -0.00179288 8.91966 9.27759e-06 10.2673V30.7673C9.27759e-06 33.4849 1.06685 36.0911 2.9658 38.0127C4.86476 39.9343 7.44029 41.0139 10.1258 41.0139H11.5792L21.9724 22.8032C22.5779 21.7351 23.5779 20.9542 24.7523 20.6322C25.9268 20.3102 27.1796 20.4735 28.2351 21.0862C29.2906 21.6989 30.0623 22.7108 30.3805 23.8992C30.6987 25.0877 30.5373 26.3555 29.9318 27.4235L22.1507 41H30.3775C33.0636 41 35.6399 39.9207 37.5399 37.9993C39.44 36.0779 40.5083 33.4716 40.5101 30.7535V10.2673C40.5119 8.92025 40.2514 7.58601 39.7434 6.34085C39.2355 5.09569 38.49 3.96403 37.5496 3.01053C36.6093 2.05703 35.4925 1.30036 34.263 0.783802C33.0335 0.267242 31.7155 0.000910194 30.3843 0ZM8.79584 30.8228C7.89008 30.8228 7.00467 30.551 6.25156 30.0418C5.49845 29.5326 4.91146 28.8089 4.56484 27.9621C4.21822 27.1153 4.12753 26.1835 4.30424 25.2846C4.48094 24.3856 4.91711 23.5599 5.55758 22.9118C6.19805 22.2637 7.01404 21.8223 7.90239 21.6435C8.79075 21.4647 9.71155 21.5565 10.5484 21.9072C11.3852 22.258 12.1004 22.852 12.6036 23.6141C13.1068 24.3761 13.3754 25.2721 13.3754 26.1887C13.3754 27.4177 12.8929 28.5964 12.0341 29.4655C11.1752 30.3346 10.0104 30.8228 8.79584 30.8228ZM31.7212 19.4455C30.8154 19.4455 29.93 19.1737 29.1769 18.6645C28.4238 18.1553 27.8368 17.4315 27.4902 16.5848C27.1436 15.738 27.0529 14.8062 27.2296 13.9072C27.4063 13.0083 27.8425 12.1826 28.4829 11.5345C29.1234 10.8864 29.9394 10.445 30.8277 10.2662C31.7161 10.0874 32.6369 10.1792 33.4737 10.5299C34.3105 10.8807 35.0257 11.4746 35.529 12.2367C36.0322 12.9988 36.3008 13.8948 36.3008 14.8113C36.3008 16.0404 35.8183 17.2191 34.9594 18.0882C34.1006 18.9573 32.9357 19.4455 31.7212 19.4455Z" fill="white"/>
<path d="M54.125 25.6889V15.3869C54.125 8.67149 57.5186 5.41786 62.4615 5.41786C67.4044 5.41786 70.7568 8.67149 70.7568 15.3869V25.6889C70.7568 32.3349 67.3701 35.5816 62.4615 35.5816C57.5528 35.5816 54.125 32.3349 54.125 25.6889ZM57.5185 15.3869V25.6889C57.5185 30.4688 59.2119 32.5153 62.4615 32.5153C65.7111 32.5153 67.3701 30.4688 67.3701 25.6889V15.3869C67.3701 10.5654 65.6699 8.52579 62.4615 8.52579C59.253 8.52579 57.5185 10.5654 57.5185 15.3869ZM80.9375 5.0918V36.6292H77.544V5.0918H80.9375Z" fill="white"/>
<path d="M93.0587 5.0918H96.4317C96.4405 6.88453 96.245 8.67231 95.849 10.4197C98.1283 14.0414 101.277 17.02 105.001 19.0776L102.945 21.7068C99.7682 19.7324 96.9678 17.197 94.6766 14.2214C93.2429 17.6341 90.8614 20.5525 87.821 22.6226L85.2227 20.2847C90.3507 17.031 93.0587 11.7378 93.0587 5.0918ZM105.255 36.9691H95.4376C90.3507 36.9691 87.2862 34.3815 87.2862 30.6561C87.2862 26.9307 90.3507 24.3014 95.4376 24.3014H105.255C110.342 24.3014 113.413 26.8891 113.413 30.6561C113.413 34.4231 110.342 36.9691 105.255 36.9691ZM95.4376 33.9375H105.255C107.997 33.9375 109.841 32.661 109.841 30.6561C109.841 28.6512 107.997 27.3331 105.255 27.3331H95.4376C92.7296 27.3331 90.858 28.6096 90.858 30.6561C90.858 32.7026 92.7296 33.9375 95.4376 33.9375ZM117.129 11.9598V15.0261H112.728V23.1706H109.334V5.0918H112.728V11.9598H117.129Z" fill="white"/>
<path d="M137.078 7.3187V10.3503H118.424V7.3187H125.855V4.02344H129.283V7.31176L137.078 7.3187ZM135.385 18.8209C135.385 22.7683 132.135 25.6889 127.556 25.6889C122.976 25.6889 119.74 22.7544 119.74 18.8209C119.74 14.8874 122.949 11.9598 127.535 11.9598C132.121 11.9598 135.385 14.8805 135.385 18.8209ZM145.888 33.2091V36.2754H120.117V27.0417H123.545V33.2091H145.888ZM131.991 18.8209C131.991 16.594 130.442 14.8042 127.556 14.8042C124.669 14.8042 123.147 16.594 123.147 18.8209C123.147 21.0478 124.662 22.7683 127.556 22.7683C130.449 22.7683 131.991 21.0478 131.991 18.8209ZM149.603 14.9152V17.9815H145.202V29.2686H141.808V5.0918H145.202V14.9152H149.603Z" fill="white"/>
<path d="M167.176 5.75084V35.2417H151.908V5.75084H167.176ZM155.302 32.1546H163.782V8.87961H155.302V32.1546ZM177.672 20.7564V36.6292H174.285V5.0918H177.672V17.6901H182.08V20.7564H177.672Z" fill="white"/>
<path d="M184.384 8.87961V5.77859H195.572V13.153C195.572 22.1023 192.467 30.0248 185.824 35.318L182.938 33.3478C187.33 30.1206 190.38 25.3556 191.493 19.9794H184.384V16.8715H192.001C192.104 15.7407 192.179 14.5752 192.179 13.4028V8.87961H184.384ZM200.337 17.7872V5.23748H203.724V36.2754H200.337V20.8674H196.073V17.7595L200.337 17.7872ZM207.447 36.6292V5.0918H210.833V36.6292H207.447Z" fill="white"/>
<path d="M234.828 19.4799V22.581H216.859V5.75084H233.135V8.87961H220.253V12.605H232.813V15.6366H220.253V19.5077L234.828 19.4799ZM236.528 36.9691H224.977C220.253 36.9691 217.545 34.7422 217.545 31.3498C217.545 27.9575 220.287 25.6889 224.977 25.6889H236.528C241.293 25.6889 243.994 27.9158 243.994 31.3498C243.994 34.7839 241.293 36.9691 236.528 36.9691ZM224.977 33.9375H236.528C238.907 33.9375 240.422 33.0287 240.422 31.3498C240.422 29.671 238.907 28.6789 236.528 28.6789H224.977C222.632 28.6789 221.082 29.6294 221.082 31.3498C221.082 33.0703 222.632 33.9375 224.977 33.9375ZM243.309 5.0918V24.8842H239.922V5.0918H243.309Z" fill="white"/>
</g>
<defs>
<clipPath id="clip0_1936_2426">
<rect width="244" height="41" fill="white"/>
</clipPath>
</defs>
</svg>
