<svg width="508" height="75" viewBox="0 0 508 75" fill="none" xmlns="http://www.w3.org/2000/svg">
<path d="M39.6267 17.1465C39.0967 17.7965 38.6167 18.2865 38.2067 18.6165C37.7967 18.9465 37.5868 19.1365 37.5868 19.1965C37.7668 19.9665 38.1767 20.6465 38.8267 21.2365C39.4767 21.8265 40.2067 22.3065 41.0067 22.6565C41.8067 23.0165 42.5867 23.2165 43.3567 23.2765C44.1267 23.3365 44.7467 23.2465 45.2167 23.0065C46.4567 22.3565 47.3467 21.4665 47.8767 20.3465C48.4067 19.2265 48.6468 18.0065 48.5868 16.7065C48.4668 13.8665 47.5367 11.3465 45.7867 9.1565C44.0367 6.9665 41.9568 5.18652 39.5268 3.82652L37.6668 2.84652C37.2568 2.60652 36.8267 2.40651 36.3767 2.22651C35.9367 2.04651 35.4767 1.90652 34.9967 1.78652C34.6967 1.66652 34.3767 1.54652 34.0167 1.42652C29.8767 0.246523 25.8467 0.0465215 21.9367 0.846521C18.0267 1.64652 14.2367 3.49652 10.5667 6.39652C8.07675 8.29652 6.05675 10.6165 4.48675 13.3665C2.91675 16.1165 1.76675 19.0665 1.02675 22.2065C0.286754 25.3465 -0.0532501 28.5565 0.00674993 31.8465C0.0667499 35.1365 0.506752 38.2865 1.33675 41.3065C3.48675 49.1465 9.62675 55.9865 17.3167 58.7165C21.1667 60.0765 24.9967 60.7465 28.8167 60.7165C32.3167 60.6865 35.8768 59.7865 38.8068 57.8265C40.5268 56.8165 42.0167 55.5965 43.2867 54.1465C44.5567 52.6965 45.7568 50.8165 46.8868 48.5065C46.8868 48.4465 46.7967 48.3465 46.6167 48.1965C45.3467 47.1365 44.1667 48.8765 43.5667 49.8265C42.5967 51.3665 41.4367 52.6565 40.0967 53.8865C38.7267 55.1565 37.2367 56.4265 35.4267 56.9865C34.9567 57.1365 34.3867 57.3265 33.7367 57.5665C32.5567 57.8665 31.2967 58.0265 29.9667 58.0565C28.6367 58.0865 27.3467 57.9865 26.1067 57.7465C19.8167 56.5465 15.4567 51.1365 13.5367 45.3165C12.7967 43.0665 12.3067 40.6365 12.0667 38.0365C11.8267 35.4365 11.7367 32.7965 11.7967 30.1365C11.8567 27.4165 12.0467 24.6865 12.3767 21.9665C12.6967 19.2465 13.2667 16.7165 14.0667 14.3765C14.8667 12.0365 15.9767 9.97652 17.3967 8.20652C18.8167 6.42652 20.6567 5.09652 22.9067 4.20652C23.9167 3.79652 24.9668 3.46651 26.0568 3.22651C27.1568 2.98651 28.2067 2.86651 29.2067 2.86651C30.2167 2.92651 31.0368 3.01651 31.6968 3.13651C32.3468 3.25651 33.1167 3.46651 34.0067 3.75651C35.7267 4.40651 37.2167 5.25651 38.4867 6.28651C39.7567 7.32651 40.6367 8.54653 41.1067 9.96653C41.2267 10.2665 41.3167 10.5465 41.3767 10.8065C41.4367 11.0765 41.4667 11.2365 41.4667 11.2965C41.5267 12.5965 41.3667 13.7365 40.9767 14.7165C40.6167 15.6765 40.1567 16.4965 39.6267 17.1465Z" fill="black"/>
<path d="M14.5367 66.6665C14.5267 66.7065 14.5167 66.7465 14.5067 66.7965L14.5367 66.6665Z" fill="black"/>
<path d="M14.8467 65.5066L14.5367 66.6566C14.7167 65.9966 14.8467 65.5066 14.8467 65.5066Z" fill="black"/>
<path d="M20.3268 73.7366C20.3268 73.7266 20.3268 73.7266 20.3168 73.7166C20.2568 73.5566 20.1068 73.4366 19.9468 73.3766C19.7868 73.3166 19.6068 73.3066 19.4368 73.3066C18.8568 73.3066 18.2768 73.2666 17.7068 73.2066C17.5468 73.1966 17.4068 73.1866 17.2768 73.1566C16.7068 73.0866 16.1068 72.9866 15.5468 72.8366C14.5668 72.5766 13.7368 72.1766 13.4968 71.5666C13.4268 71.2766 13.4468 70.8766 13.5468 70.3766C13.5968 70.1666 13.6468 69.9166 13.7368 69.6066L13.8168 69.3066C13.8768 69.0766 13.9468 68.8366 14.0168 68.5766L14.1968 67.9066C14.2368 67.7766 14.2668 67.6466 14.2968 67.5266L14.4968 66.7866C14.5068 66.7466 14.5168 66.6966 14.5268 66.6566L14.8368 65.5066L16.1168 60.8466C15.1068 60.3966 14.1468 59.8566 13.2468 59.2866C11.9168 63.9466 11.3168 66.4566 10.1268 70.1966C10.1068 70.2666 10.0868 70.3366 10.0568 70.4066C9.87678 70.8966 9.25678 72.1566 7.44678 72.8166C7.00678 72.9766 6.49678 73.1066 5.89678 73.1766C5.89678 73.1766 4.57678 73.2866 4.27678 73.3166C4.26678 73.3166 4.25677 73.3166 4.24677 73.3166C3.95677 73.3466 3.62677 73.3966 3.54677 73.7366C3.51677 73.8766 3.54678 74.0366 3.63678 74.1566C3.83678 74.3966 4.21677 74.4466 4.51677 74.4566C4.59677 74.4566 4.81677 74.4666 5.12677 74.4666C5.69677 74.4766 6.60677 74.4766 7.70677 74.4766C9.97677 74.4766 13.0268 74.4766 15.4768 74.4666C17.0768 74.4666 18.4068 74.4566 19.0868 74.4566C19.3768 74.4566 19.6168 74.4366 19.7868 74.4066C20.1168 74.3566 20.4268 74.0466 20.3268 73.7366Z" fill="black"/>
<path d="M80.1867 73.6564C80.1367 73.2264 79.6767 73.1064 79.3167 73.0964C78.7667 73.0764 78.2267 73.2065 77.6767 73.1665C77.1867 73.1265 76.6967 73.0365 76.2267 72.9265C76.2067 72.9265 76.1767 72.9164 76.1567 72.9064C76.1267 72.8964 76.1067 72.8965 76.0767 72.8865C75.4567 72.7365 74.7967 72.5065 74.1867 72.1665C73.6167 71.8465 73.0967 71.4364 72.7367 70.9064C72.6967 70.8564 72.6667 70.7965 72.6267 70.7365C72.1867 69.9865 71.8367 69.1765 71.5567 68.4265C69.0267 59.9465 66.5267 51.2965 64.0767 42.4765C61.5567 33.4165 58.9667 24.5665 56.3067 15.9265C56.1267 15.5165 55.9667 15.2464 55.8167 15.1264C55.6667 15.0064 55.5367 14.9965 55.4167 15.0865C55.2967 15.1765 55.1767 15.3065 55.0567 15.4865C54.9367 15.6665 54.8467 15.8465 54.7867 16.0165C52.5967 19.9865 50.4367 24.1565 48.3067 28.5365C46.1767 32.9165 43.9867 37.0565 41.7367 40.9665C40.6667 39.1365 39.4367 36.9965 38.0467 34.5765C36.6567 32.1465 35.2667 29.7265 33.8767 27.2965C32.4867 24.8665 31.1867 22.6165 29.9667 20.5465C28.7567 18.4765 27.8167 16.8465 27.1667 15.6665C26.8667 15.1365 26.5867 14.9265 26.3267 15.0465C26.0567 15.1665 25.8967 15.3765 25.8367 15.6665C24.7667 19.0365 23.5867 23.0364 22.2867 27.6564C20.9867 32.2764 19.6367 37.0865 18.2467 42.0865C17.5367 44.6465 17.5967 44.5065 16.8867 47.0465C17.3767 48.0165 17.2367 47.6665 17.9667 49.1365C18.1267 49.4565 18.0067 49.2265 19.1167 51.0265L24.9567 30.8464C27.0867 34.6364 29.0067 38.0365 30.7267 41.0565C31.4367 42.3565 32.1467 43.6364 32.8567 44.8764C33.5667 46.1164 34.2167 47.2465 34.8067 48.2465C35.3967 49.2565 35.8867 50.0865 36.2767 50.7365C36.6567 51.3865 36.8867 51.7465 36.9467 51.8065C37.1267 52.1565 37.4467 52.4465 37.9267 52.6465C38.3967 52.8565 38.8767 52.5465 39.3467 51.7165C40.2367 50.0565 41.1467 48.2664 42.0967 46.3464C43.0467 44.4264 44.0067 42.4965 44.9867 40.5765C45.9667 38.6565 46.9367 36.7464 47.9167 34.8464C48.8967 32.9564 49.8267 31.1465 50.7167 29.4265L51.1567 30.8464C51.6867 32.7964 52.3567 35.1264 53.1567 37.8164C53.9567 40.5064 54.7967 43.3065 55.6867 46.2065C56.5767 49.1065 57.4367 51.9965 58.2667 54.8665C59.0967 57.7365 59.8467 60.3265 60.5267 62.6365C61.0767 64.4865 61.5167 66.0665 61.8767 67.3865L62.4267 69.5364C62.4367 69.5664 62.4367 69.5965 62.4467 69.6165C62.4967 69.8765 62.6467 70.7865 62.1867 71.5165C61.9567 71.8865 61.5567 72.1865 61.1767 72.3965C61.1667 72.4065 61.1467 72.4165 61.1367 72.4165C60.7967 72.5965 60.3367 72.7865 59.7367 72.9165C59.3567 72.9965 58.9267 73.0564 58.4467 73.0664C58.4467 73.0664 57.7467 73.0264 57.3367 73.0664C56.9967 73.1064 56.5667 73.3265 56.5867 73.7265C56.5867 73.7365 56.5867 73.7365 56.5867 73.7465C56.6467 74.4965 57.6267 74.5265 58.1767 74.5265C59.0067 74.5265 59.8367 74.5265 60.6667 74.5265C61.1267 74.5265 61.6067 74.5165 62.0967 74.4965C65.4867 74.4965 70.0567 74.4965 73.5667 74.4865C76.5667 74.4865 78.7767 74.4765 78.7767 74.4765C78.7767 74.4765 80.2567 74.5465 80.1967 73.6665C80.1867 73.6765 80.1867 73.6664 80.1867 73.6564Z" fill="black"/>
<path d="M155.967 32.3367V37.9667H93.6167V32.3367H155.967ZM105.017 62.5966H152.747V67.9366H97.9267V52.9567H144.557V48.4267H97.7767V43.0867H151.647V58.0667H105.017V62.5966ZM144.197 24.0767H97.9267V18.5966H144.197V12.3067H97.9267V6.82666H151.427V29.1967H144.187V24.0767H144.197Z" fill="#080809"/>
<path d="M178.177 58.6566C185.707 58.6566 191.627 57.7066 196.227 55.7366V62.0966C192.137 63.9266 185.557 64.9466 177.807 64.9466H165.817V33.2266H183.797V14.8066H165.817V8.52658H190.597V39.5166H172.617V58.6666H178.177V58.6566ZM202.007 6.60657H208.807V67.5666H202.007V38.7666H194.257V31.8966H202.007V6.60657ZM223.937 6.24658V68.6666H217.067V6.24658H223.937Z" fill="#080809"/>
<path d="M235.107 22.7666C235.107 13.4066 242.707 6.90656 254.697 6.90656C266.617 6.90656 274.217 13.4066 274.217 22.7666C274.217 32.1966 266.617 38.6266 254.697 38.6266C242.717 38.6266 235.107 32.1966 235.107 22.7666ZM240.297 43.5966H292.487V67.8666H240.297V43.5966ZM266.977 22.7666C266.977 16.5566 261.937 12.8966 254.697 12.8966C247.387 12.8966 242.347 16.5566 242.347 22.7666C242.347 28.9766 247.387 32.6366 254.697 32.6366C261.937 32.6266 266.977 28.9766 266.977 22.7666ZM285.257 61.7266V49.7366H247.537V61.7266H285.257ZM285.257 6.24658H292.497V40.1666H285.257V6.24658Z" fill="#080809"/>
<path d="M366.887 58.8666V65.6666H304.537V58.8666H331.947V43.8866H308.627V8.50659H362.717V43.8866H339.327V58.8666H366.887ZM315.867 37.1666H355.487V15.3066H315.867V37.1666Z" fill="#080809"/>
<path d="M413.447 41.5466H377.487V7.77658H413.447V21.0066H426.387V6.24658H433.627V52.6566H426.387V27.8066H413.447V41.5466ZM434.937 61.3566V67.8566H380.477V47.6066H387.787V61.3466H434.937V61.3566ZM406.277 14.0666H384.647V35.2666H406.277V14.0666Z" fill="#080809"/>
<path d="M507.507 59.0166V65.6666H445.157V59.0166H507.507ZM504.367 48.4166H449.327V8.50659H503.417V15.0066H456.567V25.2366H502.617V31.5966H456.567V41.9066H504.367V48.4166Z" fill="#080809"/>
</svg>
