<svg width="227" height="211" viewBox="0 0 227 211" fill="none" xmlns="http://www.w3.org/2000/svg">
<path d="M112.807 30.6264C111.867 31.7764 111.027 32.6464 110.297 33.2164C109.567 33.7964 109.197 34.1364 109.197 34.2364C109.517 35.5964 110.247 36.8064 111.397 37.8464C112.547 38.8964 113.827 39.7364 115.247 40.3564C116.657 40.9864 118.047 41.3564 119.407 41.4564C120.767 41.5564 121.867 41.4064 122.707 40.9864C124.907 39.8364 126.477 38.2664 127.417 36.2764C128.357 34.2864 128.777 32.1464 128.677 29.8364C128.467 24.8064 126.817 20.3564 123.727 16.4864C120.637 12.6164 116.947 9.47637 112.657 7.06637L109.357 5.33639C108.627 4.91639 107.867 4.54639 107.077 4.23639C106.287 3.92639 105.477 3.66638 104.647 3.44638C104.117 3.23638 103.547 3.02637 102.917 2.81637C95.5867 0.726372 88.4667 0.386383 81.5567 1.79638C74.6467 3.20638 67.9467 6.48639 61.4467 11.6164C57.0467 14.9664 53.4567 19.0764 50.6867 23.9464C47.9067 28.8164 45.8667 34.0264 44.5567 39.5764C43.2467 45.1264 42.6467 50.8064 42.7467 56.6164C42.8467 62.4264 43.6367 68.0064 45.1067 73.3464C48.9167 87.2064 59.7767 99.3164 73.3767 104.136C80.1867 106.546 86.9667 107.726 93.7167 107.666C99.9067 107.616 106.197 106.016 111.387 102.556C114.427 100.776 117.067 98.6064 119.317 96.0364C121.567 93.4764 123.687 90.1464 125.677 86.0664C125.677 85.9664 125.517 85.7764 125.207 85.5164C122.967 83.6364 120.877 86.7164 119.807 88.3964C118.087 91.1164 116.037 93.3964 113.677 95.5764C111.257 97.8164 108.627 100.056 105.417 101.066C104.577 101.326 103.587 101.666 102.437 102.086C100.337 102.616 98.1168 102.896 95.7668 102.946C93.4068 102.996 91.1367 102.816 88.9367 102.396C77.8167 100.276 70.1068 90.7064 66.7068 80.4064C65.3968 76.4264 64.5367 72.1364 64.1167 67.5264C63.6967 62.9164 63.5367 58.2564 63.6467 53.5464C63.7467 48.7264 64.0867 43.9164 64.6667 39.0964C65.2367 34.2764 66.2367 29.8064 67.6467 25.6664C69.0567 21.5264 71.0267 17.8864 73.5367 14.7464C76.0467 11.6064 79.2967 9.24639 83.2767 7.67639C85.0567 6.94639 86.9168 6.36638 88.8568 5.94638C90.7967 5.52638 92.6467 5.31637 94.4367 5.31637C96.2167 5.42637 97.6767 5.57637 98.8367 5.78637C99.9867 5.99637 101.347 6.36638 102.917 6.88638C105.957 8.03638 108.597 9.53639 110.847 11.3664C113.097 13.1964 114.637 15.3664 115.477 17.8864C115.687 18.4064 115.847 18.9064 115.947 19.3764C116.047 19.8464 116.107 20.1364 116.107 20.2364C116.207 22.5364 115.927 24.5564 115.247 26.2864C114.557 28.0364 113.747 29.4764 112.807 30.6264Z" fill="#39A5DE"/>
<path d="M68.4267 118.216C68.4067 118.286 68.3867 118.366 68.3667 118.436L68.4267 118.216Z" fill="#39A5DE"/>
<path d="M68.9868 116.176L68.4268 118.216C68.7468 117.036 68.9868 116.176 68.9868 116.176Z" fill="#39A5DE"/>
<path d="M78.6767 130.717C78.6767 130.707 78.6668 130.696 78.6668 130.686C78.5568 130.396 78.2968 130.197 78.0068 130.087C77.7168 129.977 77.4068 129.967 77.0968 129.957C76.0768 129.947 75.0568 129.877 74.0368 129.777C73.7568 129.767 73.4967 129.737 73.2767 129.697C72.2767 129.577 71.1968 129.397 70.2068 129.137C68.4768 128.677 67.0067 127.977 66.5867 126.887C66.4667 126.377 66.4967 125.667 66.6767 124.777C66.7567 124.407 66.8568 123.967 67.0068 123.417L67.1467 122.887C67.2567 122.487 67.3767 122.056 67.4967 121.596L67.8168 120.417C67.8768 120.187 67.9367 119.967 67.9967 119.737L68.3468 118.436C68.3668 118.356 68.3868 118.287 68.4068 118.217L68.9667 116.177L71.2268 107.927C69.4368 107.127 67.7468 106.167 66.1568 105.167C63.8068 113.417 62.7368 117.837 60.6368 124.457C60.6068 124.577 60.5568 124.707 60.5168 124.827C60.1968 125.707 59.0968 127.927 55.9068 129.087C55.1268 129.377 54.2268 129.597 53.1668 129.717C53.1668 129.717 50.8267 129.917 50.3067 129.967C50.2867 129.967 50.2668 129.967 50.2568 129.977C49.7468 130.027 49.1667 130.127 49.0267 130.717C48.9667 130.977 49.0268 131.257 49.1968 131.457C49.5468 131.887 50.2268 131.967 50.7568 131.997C50.9068 132.007 51.2867 132.007 51.8367 132.017C52.8467 132.027 54.4667 132.026 56.3967 132.036C60.4167 132.036 65.8068 132.027 70.1368 132.017C72.9568 132.007 75.3067 132.007 76.5267 131.997C77.0467 131.987 77.4668 131.967 77.7568 131.917C78.2868 131.827 78.8567 131.277 78.6767 130.717Z" fill="#39A5DE"/>
<path d="M184.537 130.586C184.437 129.826 183.637 129.616 182.987 129.596C182.017 129.566 181.067 129.796 180.097 129.716C179.237 129.646 178.377 129.486 177.537 129.286C177.497 129.276 177.457 129.266 177.417 129.256C177.367 129.246 177.327 129.236 177.277 129.226C176.187 128.956 175.007 128.546 173.937 127.956C172.917 127.396 172.017 126.666 171.377 125.726C171.307 125.636 171.247 125.526 171.177 125.436C170.397 124.106 169.777 122.666 169.287 121.356C164.807 106.356 160.397 91.0565 156.067 75.4565C151.617 59.4365 147.037 43.7865 142.327 28.4965C142.017 27.7665 141.727 27.2965 141.467 27.0865C141.207 26.8765 140.967 26.8465 140.757 27.0065C140.547 27.1665 140.337 27.3965 140.127 27.7165C139.917 28.0265 139.757 28.3465 139.657 28.6565C135.787 35.6764 131.957 43.0565 128.187 50.8065C124.417 58.5565 120.537 65.8865 116.567 72.7965C114.677 69.5565 112.507 65.7865 110.047 61.4865C107.587 57.1965 105.127 52.9065 102.667 48.6065C100.207 44.3165 97.8967 40.3365 95.7567 36.6665C93.6067 33.0065 91.9567 30.1265 90.8067 28.0265C90.2767 27.0865 89.7867 26.7165 89.3167 26.9265C88.8467 27.1365 88.5567 27.5065 88.4567 28.0265C86.5767 33.9965 84.4767 41.0665 82.1767 49.2265C79.8767 57.3965 77.4867 65.9065 75.0267 74.7465C73.7667 79.2865 73.8767 79.0265 72.6167 83.5165C73.4967 85.2365 73.2367 84.6065 74.5167 87.2165C74.7967 87.7865 74.5967 87.3665 76.5467 90.5565L86.8867 54.8765C90.6567 61.5765 94.0567 67.5964 97.0967 72.9364C98.3567 75.2464 99.6067 77.4964 100.867 79.6864C102.127 81.8864 103.277 83.8764 104.327 85.6564C105.377 87.4364 106.237 88.9065 106.917 90.0565C107.597 91.2065 107.987 91.8365 108.097 91.9465C108.407 92.5765 108.987 93.0764 109.827 93.4364C110.667 93.8064 111.497 93.2565 112.337 91.7865C113.907 88.8565 115.527 85.6865 117.207 82.2865C118.877 78.8865 120.587 75.4765 122.317 72.0765C124.047 68.6765 125.777 65.2965 127.497 61.9465C129.227 58.5965 130.877 55.4065 132.447 52.3665L133.237 54.8765C134.177 58.3365 135.357 62.4465 136.767 67.2065C138.177 71.9765 139.677 76.9165 141.247 82.0465C142.817 87.1765 144.337 92.2865 145.807 97.3565C147.267 102.436 148.607 107.016 149.807 111.096C150.767 114.366 151.567 117.166 152.197 119.496L153.167 123.306C153.177 123.356 153.187 123.406 153.197 123.456C153.297 123.916 153.547 125.516 152.737 126.816C152.327 127.466 151.627 128.006 150.957 128.376C150.937 128.386 150.907 128.406 150.887 128.416C150.277 128.736 149.467 129.066 148.407 129.296C147.737 129.436 146.987 129.536 146.117 129.566C146.117 129.566 144.877 129.486 144.157 129.566C143.557 129.626 142.797 130.016 142.827 130.736C142.827 130.746 142.837 130.756 142.837 130.766C142.947 132.096 144.677 132.156 145.657 132.156C147.127 132.156 148.587 132.156 150.057 132.156C150.867 132.156 151.707 132.136 152.587 132.106C158.577 132.106 166.667 132.096 172.867 132.096C178.167 132.086 182.077 132.086 182.077 132.086C182.077 132.086 184.707 132.216 184.587 130.656C184.547 130.626 184.537 130.606 184.537 130.586Z" fill="#39A5DE"/>
<path d="M34.7968 167.867V170.937H0.796753V167.867H34.7968ZM7.01675 184.367H33.0468V187.277H3.15674V179.107H28.5867V176.637H3.07675V173.727H32.4467V181.897H7.01675V184.367ZM28.3867 163.367H3.15674V160.377H28.3867V156.947H3.15674V153.957H32.3268V166.157H28.3767V163.367H28.3867Z" fill="#39A5DE"/>
<path d="M46.9067 182.216C51.0167 182.216 54.2367 181.696 56.7467 180.626V184.096C54.5167 185.096 50.9268 185.646 46.7068 185.646H40.1667V168.346H49.9667V158.306H40.1667V154.876H53.6767V171.776H43.8767V182.216H46.9067ZM59.9067 153.836H63.6167V187.076H59.9067V171.376H55.6867V167.626H59.9067V153.836ZM71.8568 153.636V187.676H68.1068V153.636H71.8568Z" fill="#39A5DE"/>
<path d="M77.9568 162.646C77.9568 157.546 82.1068 153.996 88.6368 153.996C95.1368 153.996 99.2768 157.546 99.2768 162.646C99.2768 167.786 95.1368 171.296 88.6368 171.296C82.0968 171.296 77.9568 167.786 77.9568 162.646ZM80.7868 174.006H109.247V187.236H80.7868V174.006ZM95.3368 162.646C95.3368 159.256 92.5868 157.266 88.6368 157.266C84.6468 157.266 81.8968 159.256 81.8968 162.646C81.8968 166.036 84.6468 168.026 88.6368 168.026C92.5868 168.026 95.3368 166.036 95.3368 162.646ZM105.297 183.886V177.346H84.7268V183.886H105.297ZM105.297 153.636H109.247V172.126H105.297V153.636Z" fill="#39A5DE"/>
<path d="M149.807 182.336V186.046H115.807V182.336H130.757V174.166H118.047V154.876H147.537V174.166H134.787V182.336H149.807ZM121.997 170.496H143.597V158.576H121.997V170.496Z" fill="#39A5DE"/>
<path d="M175.197 172.886H155.587V154.476H175.197V161.686H182.247V153.636H186.197V178.946H182.247V165.396H175.197V172.886ZM186.917 183.686V187.236H157.217V176.196H161.207V183.686H186.917ZM171.287 157.906H159.487V169.466H171.287V157.906Z" fill="#39A5DE"/>
<path d="M226.487 182.416V186.046H192.487V182.416H226.487ZM224.777 176.636H194.767V154.876H224.257V158.426H198.707V164.006H223.817V167.476H198.707V173.096H224.777V176.636Z" fill="#39A5DE"/>
<path d="M46.9767 205.156C46.9767 201.806 49.4367 199.356 52.7867 199.356C55.6567 199.356 57.6268 201.016 58.2068 203.346H56.7267C56.2567 201.786 54.8267 200.706 52.8067 200.706C50.2567 200.706 48.4167 202.556 48.4167 205.166C48.4167 207.756 50.2667 209.626 52.8067 209.626C54.8867 209.626 56.4367 208.406 56.8367 206.826H58.3167C57.8367 209.136 55.7167 210.966 52.7767 210.966C49.4467 210.956 46.9767 208.506 46.9767 205.156Z" fill="#39A5DE"/>
<path d="M62.3367 209.396H68.4267V210.706H60.8867V199.626H62.3367V209.396Z" fill="#39A5DE"/>
<path d="M78.1167 207.966H72.7867L71.6767 210.706H70.1567L74.7267 199.626H76.2668L80.8167 210.706H79.2267L78.1167 207.966ZM77.6068 206.686L75.4568 201.326L73.2968 206.686H77.6068Z" fill="#39A5DE"/>
<path d="M84.4467 210.706H82.9967V199.626H84.4467V210.706Z" fill="#39A5DE"/>
<path d="M88.7968 199.626L93.0768 207.156L97.3568 199.626H98.6267V210.706H97.1767V202.526L93.6068 208.836H92.5567L88.9868 202.526V210.706H87.5367V199.626H88.7968Z" fill="#39A5DE"/>
<path d="M107.527 199.626L111.807 207.156L116.087 199.626H117.357V210.706H115.907V202.526L112.337 208.836H111.287L107.717 202.526V210.706H106.267V199.626H107.527Z" fill="#39A5DE"/>
<path d="M119.937 205.156C119.937 201.806 122.417 199.356 125.777 199.356C129.137 199.356 131.627 201.806 131.627 205.156C131.627 208.506 129.147 210.956 125.787 210.956C122.427 210.956 119.937 208.506 119.937 205.156ZM130.177 205.156C130.177 202.536 128.307 200.686 125.777 200.686C123.247 200.686 121.387 202.536 121.387 205.156C121.387 207.756 123.257 209.626 125.787 209.626C128.307 209.636 130.177 207.766 130.177 205.156Z" fill="#39A5DE"/>
<path d="M135.507 199.626L139.787 207.156L144.067 199.626H145.337V210.706H143.887V202.526L140.317 208.836H139.267L135.697 202.526V210.706H134.247V199.626H135.507Z" fill="#39A5DE"/>
<path d="M156.277 199.626V200.916H149.857V204.406H155.797V205.696H149.857V209.436H156.407V210.726H148.407V199.646H156.277V199.626Z" fill="#39A5DE"/>
<path d="M160.317 199.626L167.027 208.266V199.556H168.497V210.636H167.127L160.417 201.996V210.706H158.967V199.626H160.317Z" fill="#39A5DE"/>
<path d="M176.337 200.926V210.706H174.887V200.926H170.897V199.626H180.307V200.926H176.337Z" fill="#39A5DE"/>
</svg>
