<svg width="184" height="170" viewBox="0 0 184 170" fill="none" xmlns="http://www.w3.org/2000/svg">
<path d="M90.8767 38.4164C89.6567 39.9064 88.5667 41.0264 87.6267 41.7764C86.6767 42.5264 86.2067 42.9665 86.2067 43.0965C86.6167 44.8565 87.5567 46.4165 89.0567 47.7765C90.5467 49.1365 92.2067 50.2165 94.0367 51.0265C95.8667 51.8365 97.6567 52.3164 99.4267 52.4464C101.187 52.5864 102.607 52.3765 103.697 51.8365C106.547 50.3465 108.577 48.3164 109.797 45.7364C111.017 43.1664 111.557 40.3864 111.427 37.3964C111.157 30.8864 109.017 25.1265 105.017 20.1165C101.017 15.1065 96.2367 11.0364 90.6867 7.91642L86.4167 5.67643C85.4667 5.13643 84.4867 4.65651 83.4667 4.25651C82.4467 3.84651 81.3967 3.51649 80.3167 3.23649C79.6367 2.96649 78.8967 2.69643 78.0767 2.42643C68.5867 -0.28357 59.3667 -0.723516 50.4267 1.10648C41.4767 2.93648 32.8067 7.17644 24.3967 13.8164C18.7067 18.1564 14.0567 23.4764 10.4667 29.7764C6.87668 36.0764 4.22669 42.8264 2.53669 50.0064C0.836686 57.1964 0.0666893 64.5464 0.196689 72.0664C0.326689 79.5864 1.34668 86.8065 3.24668 93.7165C8.17668 111.656 22.2367 127.336 39.8467 133.566C48.6567 136.686 57.4367 138.206 66.1767 138.146C74.1967 138.086 82.3367 136.016 89.0467 131.536C92.9767 129.236 96.3967 126.426 99.3167 123.096C102.227 119.776 104.977 115.476 107.547 110.186C107.547 110.056 107.347 109.816 106.937 109.476C104.037 107.046 101.327 111.026 99.9467 113.206C97.7167 116.726 95.0667 119.676 92.0067 122.506C88.8767 125.406 85.4667 128.306 81.3167 129.606C80.2267 129.946 78.9467 130.386 77.4567 130.926C74.7467 131.606 71.8667 131.976 68.8167 132.046C65.7667 132.116 62.8167 131.876 59.9667 131.336C45.5667 128.596 35.5867 116.196 31.1967 102.866C29.4967 97.7164 28.3867 92.1665 27.8367 86.1964C27.2967 80.2365 27.0867 74.1965 27.2267 68.1065C27.3567 61.8765 27.7967 55.6365 28.5467 49.3965C29.2867 43.1665 30.5767 37.3664 32.4067 32.0164C34.2367 26.6664 36.7767 21.9465 40.0267 17.8865C43.2767 13.8165 47.4767 10.7665 52.6267 8.73649C54.9267 7.78649 57.3367 7.0465 59.8467 6.4965C62.3567 5.9565 64.7567 5.68644 67.0667 5.68644C69.3667 5.82644 71.2667 6.02643 72.7567 6.29643C74.2467 6.56643 76.0067 7.04647 78.0467 7.71647C81.9767 9.20647 85.3967 11.1365 88.3167 13.5065C91.2267 15.8765 93.2267 18.6864 94.3167 21.9464C94.5867 22.6264 94.7867 23.2665 94.9267 23.8765C95.0567 24.4865 95.1267 24.8565 95.1267 24.9965C95.2567 27.9765 94.8867 30.5865 94.0067 32.8265C93.1467 35.0565 92.0967 36.9264 90.8767 38.4164Z" fill="black"/>
<path d="M33.4267 151.796C33.3967 151.896 33.3767 151.986 33.3467 152.086L33.4267 151.796Z" fill="black"/>
<path d="M34.1466 149.156L33.4266 151.796C33.8466 150.276 34.1466 149.156 34.1466 149.156Z" fill="black"/>
<path d="M46.6866 167.986C46.6866 167.976 46.6766 167.956 46.6666 167.946C46.5266 167.576 46.1866 167.307 45.8166 167.167C45.4466 167.027 45.0366 167.006 44.6466 167.006C43.3266 166.996 42.0066 166.906 40.6866 166.776C40.3166 166.756 39.9866 166.727 39.6966 166.667C38.3966 166.507 37.0066 166.276 35.7266 165.936C33.4966 165.346 31.5866 164.436 31.0366 163.026C30.8766 162.366 30.9166 161.446 31.1566 160.296C31.2566 159.816 31.3966 159.246 31.5866 158.536L31.7766 157.857C31.9166 157.337 32.0666 156.776 32.2266 156.186L32.6366 154.667C32.7166 154.377 32.7966 154.076 32.8766 153.786L33.3366 152.096C33.3666 151.996 33.3866 151.896 33.4166 151.806L34.1366 149.167L37.0566 138.486C34.7366 137.456 32.5566 136.207 30.4866 134.917C27.4466 145.597 26.0666 151.326 23.3366 159.886C23.2966 160.046 23.2366 160.206 23.1866 160.366C22.7766 161.496 21.3466 164.386 17.2166 165.886C16.2066 166.256 15.0466 166.546 13.6766 166.706C13.6766 166.706 10.6466 166.956 9.97662 167.026C9.95662 167.026 9.92662 167.027 9.90662 167.036C9.23662 167.106 8.49662 167.226 8.31662 167.986C8.23662 168.316 8.31661 168.686 8.52661 168.946C8.97661 169.506 9.86663 169.596 10.5466 169.636C10.7366 169.646 11.2266 169.657 11.9366 169.667C13.2466 169.677 15.3366 169.686 17.8466 169.686C23.0466 169.696 30.0266 169.677 35.6266 169.667C39.2766 169.657 42.3266 169.646 43.8966 169.646C44.5666 169.636 45.1066 169.606 45.4966 169.536C46.1966 169.417 46.9266 168.696 46.6866 167.986Z" fill="black"/>
<path d="M183.737 167.807C183.617 166.827 182.577 166.557 181.737 166.527C180.487 166.487 179.247 166.787 177.987 166.687C176.877 166.597 175.757 166.387 174.667 166.137C174.617 166.127 174.557 166.107 174.507 166.097C174.447 166.087 174.387 166.066 174.327 166.057C172.917 165.706 171.387 165.177 169.997 164.417C168.687 163.697 167.507 162.747 166.687 161.527C166.597 161.417 166.517 161.277 166.427 161.147C165.417 159.427 164.617 157.566 163.987 155.866C158.187 136.446 152.477 116.647 146.867 96.4465C141.107 75.7065 135.177 55.4465 129.077 35.6565C128.667 34.7065 128.297 34.0965 127.957 33.8265C127.617 33.5565 127.307 33.5165 127.047 33.7265C126.777 33.9265 126.507 34.2366 126.237 34.6366C125.967 35.0466 125.757 35.4465 125.627 35.8565C120.607 44.9365 115.667 54.4965 110.787 64.5265C105.907 74.5565 100.887 84.0465 95.7367 92.9865C93.2967 88.7865 90.4767 83.9065 87.2967 78.3465C84.1067 72.7865 80.9267 67.2365 77.7367 61.6765C74.5467 56.1165 71.5667 50.9665 68.7867 46.2265C66.0067 41.4865 63.8666 37.7565 62.3766 35.0465C61.6966 33.8265 61.0567 33.3566 60.4467 33.6266C59.8367 33.8966 59.4567 34.3765 59.3267 35.0465C56.8867 42.7765 54.1767 51.9265 51.1967 62.4965C48.2167 73.0665 45.1267 84.0865 41.9467 95.5365C40.3167 101.407 40.4567 101.077 38.8267 106.897C39.9567 109.127 39.6267 108.307 41.2867 111.687C41.6467 112.417 41.3867 111.887 43.9167 116.017L57.2967 69.8265C62.1767 78.5065 66.5767 86.2965 70.5167 93.2065C72.1467 96.1865 73.7666 99.1065 75.3966 101.947C77.0266 104.797 78.5166 107.366 79.8666 109.676C81.2166 111.986 82.3367 113.876 83.2267 115.366C84.1067 116.856 84.6166 117.676 84.7466 117.806C85.1566 118.616 85.8967 119.266 86.9867 119.736C88.0667 120.216 89.1567 119.507 90.2367 117.607C92.2667 113.817 94.3667 109.716 96.5367 105.306C98.7066 100.906 100.907 96.4965 103.147 92.0865C105.387 87.6865 107.617 83.3065 109.857 78.9765C112.097 74.6365 114.227 70.5065 116.267 66.5765L117.287 69.8265C118.507 74.2965 120.027 79.6165 121.857 85.7865C123.687 91.9565 125.617 98.3565 127.647 104.996C129.677 111.636 131.647 118.247 133.547 124.817C135.447 131.397 137.167 137.317 138.727 142.607C139.977 146.847 140.997 150.457 141.817 153.477L143.077 158.407C143.087 158.467 143.107 158.537 143.127 158.597C143.257 159.187 143.577 161.267 142.527 162.937C141.997 163.777 141.087 164.477 140.227 164.957C140.197 164.977 140.167 164.997 140.127 165.007C139.347 165.427 138.287 165.857 136.917 166.137C136.057 166.317 135.077 166.447 133.957 166.486C133.957 166.486 132.357 166.386 131.417 166.486C130.647 166.566 129.657 167.077 129.697 168.007C129.697 168.027 129.707 168.036 129.707 168.046C129.847 169.766 132.087 169.837 133.347 169.837C135.247 169.837 137.137 169.837 139.037 169.837C140.087 169.837 141.177 169.817 142.307 169.767C150.057 169.767 160.527 169.757 168.557 169.747C175.417 169.737 180.487 169.727 180.487 169.727C180.487 169.727 183.887 169.887 183.737 167.877C183.737 167.857 183.737 167.827 183.737 167.807Z" fill="black"/>
</svg>
