<svg width="9" height="8" viewBox="0 0 9 8" fill="none" xmlns="http://www.w3.org/2000/svg">
<path d="M2.19781 7.76188C3.13781 7.76188 3.79781 7.12188 3.79781 6.08188C3.79781 5.12188 3.05781 4.54188 2.19781 4.54188C2.11781 4.54188 2.05781 4.54188 1.97781 4.56188C1.97781 3.28188 2.63781 2.42188 3.93781 1.72188L3.25781 0.421875C1.25781 1.46187 0.257812 3.00187 0.257812 5.04187C0.257812 6.76188 0.937813 7.76188 2.19781 7.76188ZM7.19781 7.76188C8.11781 7.76188 8.79781 7.12188 8.79781 6.08188C8.79781 5.12188 8.05781 4.54188 7.19781 4.54188C7.11781 4.54188 7.05781 4.54188 6.97781 4.56188C6.97781 3.28188 7.63781 2.42188 8.93781 1.72188L8.25781 0.421875C6.25781 1.46187 5.25781 3.00187 5.25781 5.04187C5.25781 6.76188 5.93781 7.76188 7.19781 7.76188Z" fill="white"/>
</svg>
